<mxfile host="app.diagrams.net" agent="Mozilla/5.0 (Windows NT 10.0; Win64; x64) AppleWebKit/537.36 (KHTML, like Gecko) Chrome/136.0.0.0 Safari/537.36" version="27.0.6">
  <diagram name="Pagina-1" id="kpaGEh9nXqvZMZwJ1vCg">
    <mxGraphModel dx="1385" dy="754" grid="1" gridSize="10" guides="1" tooltips="1" connect="1" arrows="1" fold="1" page="1" pageScale="1" pageWidth="827" pageHeight="1169" background="light-dark(#FFFFFF,#F9F9F9)" math="0" shadow="0">
      <root>
        <mxCell id="0" />
        <mxCell id="1" parent="0" />
        <mxCell id="OoIWjtk9Z4yZWAxyzODX-1" value="&lt;font style=&quot;color: light-dark(rgb(0, 0, 0), rgb(0, 0, 0)); font-size: 14px;&quot;&gt;Chair&lt;/font&gt;" style="shape=umlActor;verticalLabelPosition=bottom;verticalAlign=top;html=1;outlineConnect=0;strokeColor=light-dark(#000000,#000000);fillColor=light-dark(#FFFFC6,#FDF89C);" parent="1" vertex="1">
          <mxGeometry x="300" y="500" width="30" height="60" as="geometry" />
        </mxCell>
        <mxCell id="3F_oWGOy9HoPIHc5fj9h-7" style="edgeStyle=orthogonalEdgeStyle;rounded=0;orthogonalLoop=1;jettySize=auto;html=1;exitX=0.25;exitY=0.1;exitDx=0;exitDy=0;exitPerimeter=0;" edge="1" parent="1" source="OoIWjtk9Z4yZWAxyzODX-16" target="OoIWjtk9Z4yZWAxyzODX-18">
          <mxGeometry relative="1" as="geometry" />
        </mxCell>
        <mxCell id="OoIWjtk9Z4yZWAxyzODX-16" value="&lt;font style=&quot;color: light-dark(rgb(0, 0, 0), rgb(0, 0, 0));&quot;&gt;&lt;span style=&quot;font-size: 14px;&quot;&gt;Revisore&lt;/span&gt;&lt;/font&gt;" style="shape=umlActor;verticalLabelPosition=bottom;verticalAlign=top;html=1;outlineConnect=0;strokeColor=light-dark(#000000,#000000);fillColor=light-dark(#FFFFC6,#FDF89C);" parent="1" vertex="1">
          <mxGeometry x="300" y="130" width="30" height="60" as="geometry" />
        </mxCell>
        <mxCell id="OoIWjtk9Z4yZWAxyzODX-4" value="&lt;font style=&quot;color: light-dark(rgb(9, 9, 9), rgb(0, 0, 0));&quot; face=&quot;Courier New&quot;&gt;&lt;span style=&quot;font-size: 14px;&quot;&gt;&lt;b style=&quot;&quot;&gt;Visualizza&lt;br&gt;Revisione&lt;br&gt;Assegnate&lt;/b&gt;&lt;/span&gt;&lt;/font&gt;" style="ellipse;whiteSpace=wrap;html=1;fillColor=light-dark(#FFFFC6,#FDF89C);strokeColor=light-dark(#000000,#000000);" parent="1" vertex="1">
          <mxGeometry x="396.88" y="60" width="165" height="60" as="geometry" />
        </mxCell>
        <mxCell id="OoIWjtk9Z4yZWAxyzODX-18" value="uc" style="shape=umlFrame;whiteSpace=wrap;html=1;pointerEvents=0;strokeColor=light-dark(#000000,#000000);width=76;height=28;" parent="1" vertex="1">
          <mxGeometry x="190" y="70" width="720" height="840" as="geometry" />
        </mxCell>
        <mxCell id="OoIWjtk9Z4yZWAxyzODX-27" value="" style="endArrow=none;html=1;rounded=0;strokeColor=light-dark(#000000,#000000);endFill=0;strokeWidth=1;startSize=6;jumpSize=6;targetPerimeterSpacing=0;endSize=6;entryX=1;entryY=0.5;entryDx=0;entryDy=0;startFill=0;" parent="1" target="OoIWjtk9Z4yZWAxyzODX-4" edge="1">
          <mxGeometry width="50" height="50" relative="1" as="geometry">
            <mxPoint x="840" y="370" as="sourcePoint" />
            <mxPoint x="503" y="110" as="targetPoint" />
            <Array as="points" />
          </mxGeometry>
        </mxCell>
        <mxCell id="OoIWjtk9Z4yZWAxyzODX-28" value="" style="endArrow=none;html=1;rounded=0;strokeColor=light-dark(#000000,#000000);endFill=0;strokeWidth=1;startSize=6;jumpSize=6;targetPerimeterSpacing=0;endSize=6;entryX=1;entryY=0.5;entryDx=0;entryDy=0;startFill=0;" parent="1" target="OoIWjtk9Z4yZWAxyzODX-3" edge="1">
          <mxGeometry width="50" height="50" relative="1" as="geometry">
            <mxPoint x="840" y="370" as="sourcePoint" />
            <mxPoint x="668" y="110" as="targetPoint" />
            <Array as="points" />
          </mxGeometry>
        </mxCell>
        <mxCell id="3F_oWGOy9HoPIHc5fj9h-1" value="" style="edgeStyle=orthogonalEdgeStyle;rounded=0;orthogonalLoop=1;jettySize=auto;html=1;" edge="1" parent="1" source="OoIWjtk9Z4yZWAxyzODX-34" target="OoIWjtk9Z4yZWAxyzODX-18">
          <mxGeometry relative="1" as="geometry" />
        </mxCell>
        <mxCell id="OoIWjtk9Z4yZWAxyzODX-34" value="&lt;font style=&quot;color: light-dark(rgb(0, 0, 0), rgb(0, 0, 0));&quot;&gt;&lt;span style=&quot;font-size: 14px;&quot;&gt;DBMS&lt;/span&gt;&lt;/font&gt;" style="shape=umlActor;verticalLabelPosition=bottom;verticalAlign=top;html=1;outlineConnect=0;strokeColor=light-dark(#000000,#000000);fillColor=light-dark(#FFFFC6,#FDF89C);" parent="1" vertex="1">
          <mxGeometry x="860" y="360" width="30" height="60" as="geometry" />
        </mxCell>
        <mxCell id="OoIWjtk9Z4yZWAxyzODX-40" value="" style="endArrow=none;html=1;rounded=0;strokeColor=light-dark(#000000,#000000);endFill=0;strokeWidth=1;startSize=6;jumpSize=6;targetPerimeterSpacing=0;endSize=6;startFill=0;entryX=0;entryY=0.5;entryDx=0;entryDy=0;" parent="1" edge="1" source="OoIWjtk9Z4yZWAxyzODX-3">
          <mxGeometry width="50" height="50" relative="1" as="geometry">
            <mxPoint x="332" y="150" as="sourcePoint" />
            <mxPoint x="494.5" y="170" as="targetPoint" />
            <Array as="points" />
          </mxGeometry>
        </mxCell>
        <mxCell id="OoIWjtk9Z4yZWAxyzODX-41" value="" style="endArrow=none;html=1;rounded=0;strokeColor=light-dark(#000000,#000000);endFill=0;strokeWidth=1;startSize=6;jumpSize=6;targetPerimeterSpacing=0;endSize=6;startFill=0;entryX=0;entryY=0.5;entryDx=0;entryDy=0;" parent="1" target="OoIWjtk9Z4yZWAxyzODX-4" edge="1">
          <mxGeometry width="50" height="50" relative="1" as="geometry">
            <mxPoint x="330" y="150" as="sourcePoint" />
            <mxPoint x="482.5" y="90" as="targetPoint" />
            <Array as="points" />
          </mxGeometry>
        </mxCell>
        <mxCell id="3F_oWGOy9HoPIHc5fj9h-5" value="&lt;font style=&quot;color: light-dark(rgb(0, 0, 0), rgb(0, 0, 0));&quot;&gt;&lt;span style=&quot;font-size: 14px;&quot;&gt;Sotto-Revisore&lt;/span&gt;&lt;/font&gt;" style="shape=umlActor;verticalLabelPosition=bottom;verticalAlign=top;html=1;outlineConnect=0;strokeColor=light-dark(#000000,#000000);fillColor=light-dark(#FFFFC6,#FDF89C);" vertex="1" parent="1">
          <mxGeometry x="300" y="270" width="30" height="60" as="geometry" />
        </mxCell>
        <mxCell id="3F_oWGOy9HoPIHc5fj9h-6" style="edgeStyle=orthogonalEdgeStyle;rounded=0;orthogonalLoop=1;jettySize=auto;html=1;exitX=0.75;exitY=0.1;exitDx=0;exitDy=0;exitPerimeter=0;entryX=0.5;entryY=0;entryDx=0;entryDy=0;entryPerimeter=0;" edge="1" parent="1" source="OoIWjtk9Z4yZWAxyzODX-16" target="OoIWjtk9Z4yZWAxyzODX-16">
          <mxGeometry relative="1" as="geometry" />
        </mxCell>
        <mxCell id="3F_oWGOy9HoPIHc5fj9h-8" value="&lt;font style=&quot;color: light-dark(rgb(186, 0, 0), rgb(0, 0, 0));&quot;&gt;&lt;b&gt;Accetta&lt;br&gt;Articolo&lt;br&gt;Revisione&lt;/b&gt;&lt;/font&gt;" style="ellipse;whiteSpace=wrap;html=1;fillColor=light-dark(#DAE8FC,#FDF89C);strokeColor=light-dark(#6C8EBF,#000000);" vertex="1" parent="1">
          <mxGeometry x="450" y="200" width="157.5" height="50" as="geometry" />
        </mxCell>
        <mxCell id="3F_oWGOy9HoPIHc5fj9h-9" value="" style="endArrow=none;html=1;rounded=0;exitX=0.5;exitY=0.5;exitDx=0;exitDy=0;exitPerimeter=0;entryX=0;entryY=0.5;entryDx=0;entryDy=0;strokeColor=light-dark(#000000,#000000);" edge="1" parent="1" source="3F_oWGOy9HoPIHc5fj9h-5" target="3F_oWGOy9HoPIHc5fj9h-8">
          <mxGeometry width="50" height="50" relative="1" as="geometry">
            <mxPoint x="600" y="460" as="sourcePoint" />
            <mxPoint x="650" y="410" as="targetPoint" />
          </mxGeometry>
        </mxCell>
        <mxCell id="3F_oWGOy9HoPIHc5fj9h-10" value="" style="endArrow=none;html=1;rounded=0;strokeColor=light-dark(#000000,#000000);entryX=1;entryY=0.5;entryDx=0;entryDy=0;" edge="1" parent="1" target="3F_oWGOy9HoPIHc5fj9h-8">
          <mxGeometry width="50" height="50" relative="1" as="geometry">
            <mxPoint x="840" y="370" as="sourcePoint" />
            <mxPoint x="650" y="410" as="targetPoint" />
          </mxGeometry>
        </mxCell>
        <mxCell id="3F_oWGOy9HoPIHc5fj9h-11" value="" style="endArrow=none;html=1;rounded=0;entryX=0;entryY=0.5;entryDx=0;entryDy=0;strokeColor=light-dark(#000000,#000000);" edge="1" parent="1" target="3F_oWGOy9HoPIHc5fj9h-8">
          <mxGeometry width="50" height="50" relative="1" as="geometry">
            <mxPoint x="330" y="150" as="sourcePoint" />
            <mxPoint x="650" y="410" as="targetPoint" />
          </mxGeometry>
        </mxCell>
        <mxCell id="3F_oWGOy9HoPIHc5fj9h-12" value="&lt;font style=&quot;color: light-dark(rgb(186, 0, 0), rgb(0, 0, 0));&quot;&gt;Modifica&lt;br&gt;Revisione&lt;/font&gt;" style="ellipse;whiteSpace=wrap;html=1;fillColor=light-dark(#FFE6CC,#FDF89C);strokeColor=light-dark(#D79B00,#000000);" vertex="1" parent="1">
          <mxGeometry x="477.5" y="390" width="130" height="50" as="geometry" />
        </mxCell>
        <mxCell id="3F_oWGOy9HoPIHc5fj9h-13" value="" style="endArrow=none;html=1;rounded=0;exitX=1;exitY=0.3333333333333333;exitDx=0;exitDy=0;exitPerimeter=0;entryX=0.344;entryY=0.04;entryDx=0;entryDy=0;entryPerimeter=0;strokeColor=light-dark(#000000,#000000);" edge="1" parent="1" source="OoIWjtk9Z4yZWAxyzODX-16" target="3F_oWGOy9HoPIHc5fj9h-12">
          <mxGeometry width="50" height="50" relative="1" as="geometry">
            <mxPoint x="600" y="460" as="sourcePoint" />
            <mxPoint x="650" y="410" as="targetPoint" />
          </mxGeometry>
        </mxCell>
        <mxCell id="3F_oWGOy9HoPIHc5fj9h-14" value="" style="endArrow=none;html=1;rounded=0;exitX=0.5;exitY=0.5;exitDx=0;exitDy=0;exitPerimeter=0;entryX=0.352;entryY=0.06;entryDx=0;entryDy=0;entryPerimeter=0;strokeColor=light-dark(#000000,#000000);" edge="1" parent="1" source="3F_oWGOy9HoPIHc5fj9h-5" target="3F_oWGOy9HoPIHc5fj9h-12">
          <mxGeometry width="50" height="50" relative="1" as="geometry">
            <mxPoint x="600" y="460" as="sourcePoint" />
            <mxPoint x="650" y="410" as="targetPoint" />
          </mxGeometry>
        </mxCell>
        <mxCell id="3F_oWGOy9HoPIHc5fj9h-16" value="" style="endArrow=none;html=1;rounded=0;entryX=1;entryY=0.5;entryDx=0;entryDy=0;strokeColor=light-dark(#000000,#000000);" edge="1" parent="1" target="3F_oWGOy9HoPIHc5fj9h-12">
          <mxGeometry width="50" height="50" relative="1" as="geometry">
            <mxPoint x="840" y="370" as="sourcePoint" />
            <mxPoint x="650" y="410" as="targetPoint" />
          </mxGeometry>
        </mxCell>
        <mxCell id="3F_oWGOy9HoPIHc5fj9h-17" value="&lt;font style=&quot;color: light-dark(rgb(0, 0, 0), rgb(0, 0, 0));&quot;&gt;Assegna&amp;nbsp;&lt;br&gt;Revisione&amp;nbsp;&lt;br&gt;Manualmente&lt;/font&gt;" style="ellipse;whiteSpace=wrap;html=1;fillColor=light-dark(#FFFFFF,#FDF89C);strokeColor=light-dark(#000000,#000000);" vertex="1" parent="1">
          <mxGeometry x="580" y="430" width="137.5" height="50" as="geometry" />
        </mxCell>
        <mxCell id="3F_oWGOy9HoPIHc5fj9h-18" value="" style="endArrow=none;html=1;rounded=0;exitX=1;exitY=0.3333333333333333;exitDx=0;exitDy=0;exitPerimeter=0;entryX=0;entryY=0.5;entryDx=0;entryDy=0;strokeColor=light-dark(#000000,#000000);" edge="1" parent="1" source="OoIWjtk9Z4yZWAxyzODX-1" target="3F_oWGOy9HoPIHc5fj9h-17">
          <mxGeometry width="50" height="50" relative="1" as="geometry">
            <mxPoint x="600" y="460" as="sourcePoint" />
            <mxPoint x="650" y="410" as="targetPoint" />
          </mxGeometry>
        </mxCell>
        <mxCell id="3F_oWGOy9HoPIHc5fj9h-19" value="" style="endArrow=none;html=1;rounded=0;exitX=1;exitY=0.5;exitDx=0;exitDy=0;strokeColor=light-dark(#000000,#000000);" edge="1" parent="1" source="3F_oWGOy9HoPIHc5fj9h-17">
          <mxGeometry width="50" height="50" relative="1" as="geometry">
            <mxPoint x="600" y="460" as="sourcePoint" />
            <mxPoint x="840" y="370" as="targetPoint" />
          </mxGeometry>
        </mxCell>
        <mxCell id="3F_oWGOy9HoPIHc5fj9h-20" value="&lt;font style=&quot;color: light-dark(rgb(0, 0, 0), rgb(0, 0, 0));&quot;&gt;Proponi&lt;br&gt;Articoli&lt;br&gt;Revisione&lt;/font&gt;" style="ellipse;whiteSpace=wrap;html=1;fillColor=light-dark(#FFFFFF,#FDF89C);strokeColor=light-dark(#000000,#000000);" vertex="1" parent="1">
          <mxGeometry x="578.75" y="490" width="138.75" height="50" as="geometry" />
        </mxCell>
        <mxCell id="3F_oWGOy9HoPIHc5fj9h-21" value="" style="endArrow=none;html=1;rounded=0;entryX=0;entryY=0.5;entryDx=0;entryDy=0;strokeColor=light-dark(#000000,#000000);" edge="1" parent="1" target="3F_oWGOy9HoPIHc5fj9h-20">
          <mxGeometry width="50" height="50" relative="1" as="geometry">
            <mxPoint x="330" y="520" as="sourcePoint" />
            <mxPoint x="650" y="410" as="targetPoint" />
          </mxGeometry>
        </mxCell>
        <mxCell id="3F_oWGOy9HoPIHc5fj9h-22" value="" style="endArrow=none;html=1;rounded=0;exitX=1;exitY=0.5;exitDx=0;exitDy=0;strokeColor=light-dark(#000000,#000000);" edge="1" parent="1" source="3F_oWGOy9HoPIHc5fj9h-20">
          <mxGeometry width="50" height="50" relative="1" as="geometry">
            <mxPoint x="600" y="460" as="sourcePoint" />
            <mxPoint x="840" y="370" as="targetPoint" />
          </mxGeometry>
        </mxCell>
        <mxCell id="3F_oWGOy9HoPIHc5fj9h-23" value="&lt;font style=&quot;color: light-dark(rgb(0, 0, 0), rgb(0, 0, 0));&quot;&gt;Visualizza&lt;br&gt;Dati&lt;br&gt;Articolo&lt;/font&gt;" style="ellipse;whiteSpace=wrap;html=1;fillColor=light-dark(#FFFFFF,#FDF89C);strokeColor=light-dark(#000000,#000000);" vertex="1" parent="1">
          <mxGeometry x="570" y="655" width="107.5" height="55" as="geometry" />
        </mxCell>
        <mxCell id="3F_oWGOy9HoPIHc5fj9h-24" value="" style="endArrow=none;html=1;rounded=0;exitX=0;exitY=0;exitDx=0;exitDy=0;entryX=1;entryY=0.3333333333333333;entryDx=0;entryDy=0;entryPerimeter=0;strokeColor=light-dark(#000000,#000000);" edge="1" parent="1" source="3F_oWGOy9HoPIHc5fj9h-23" target="OoIWjtk9Z4yZWAxyzODX-16">
          <mxGeometry width="50" height="50" relative="1" as="geometry">
            <mxPoint x="600" y="460" as="sourcePoint" />
            <mxPoint x="650" y="410" as="targetPoint" />
          </mxGeometry>
        </mxCell>
        <mxCell id="3F_oWGOy9HoPIHc5fj9h-25" value="" style="endArrow=none;html=1;rounded=0;exitX=1;exitY=0.3333333333333333;exitDx=0;exitDy=0;exitPerimeter=0;" edge="1" parent="1" source="OoIWjtk9Z4yZWAxyzODX-1">
          <mxGeometry width="50" height="50" relative="1" as="geometry">
            <mxPoint x="600" y="460" as="sourcePoint" />
            <mxPoint x="650" y="410" as="targetPoint" />
          </mxGeometry>
        </mxCell>
        <mxCell id="3F_oWGOy9HoPIHc5fj9h-27" value="" style="endArrow=none;html=1;rounded=0;exitX=0;exitY=0.5;exitDx=0;exitDy=0;strokeColor=light-dark(#000000,#000000);" edge="1" parent="1" source="3F_oWGOy9HoPIHc5fj9h-23">
          <mxGeometry width="50" height="50" relative="1" as="geometry">
            <mxPoint x="600" y="460" as="sourcePoint" />
            <mxPoint x="340" y="520" as="targetPoint" />
          </mxGeometry>
        </mxCell>
        <mxCell id="3F_oWGOy9HoPIHc5fj9h-28" value="" style="endArrow=none;html=1;rounded=0;exitX=0.963;exitY=0.691;exitDx=0;exitDy=0;exitPerimeter=0;strokeColor=light-dark(#000000,#000000);" edge="1" parent="1" source="3F_oWGOy9HoPIHc5fj9h-23">
          <mxGeometry width="50" height="50" relative="1" as="geometry">
            <mxPoint x="600" y="460" as="sourcePoint" />
            <mxPoint x="840" y="370" as="targetPoint" />
          </mxGeometry>
        </mxCell>
        <mxCell id="3F_oWGOy9HoPIHc5fj9h-30" value="&lt;font style=&quot;color: light-dark(rgb(0, 0, 0), rgb(0, 0, 0));&quot;&gt;Visualizza&lt;br&gt;Articoli&lt;br&gt;Revisionati&lt;/font&gt;" style="ellipse;whiteSpace=wrap;html=1;fillColor=light-dark(#FFFFFF,#FDF89C);strokeColor=light-dark(#000000,#000000);" vertex="1" parent="1">
          <mxGeometry x="561.88" y="720" width="140" height="50" as="geometry" />
        </mxCell>
        <mxCell id="3F_oWGOy9HoPIHc5fj9h-31" value="" style="endArrow=none;html=1;rounded=0;exitX=0.087;exitY=0.307;exitDx=0;exitDy=0;exitPerimeter=0;strokeColor=light-dark(#000000,#000000);" edge="1" parent="1" source="3F_oWGOy9HoPIHc5fj9h-30">
          <mxGeometry width="50" height="50" relative="1" as="geometry">
            <mxPoint x="510" y="530" as="sourcePoint" />
            <mxPoint x="330" y="150" as="targetPoint" />
          </mxGeometry>
        </mxCell>
        <mxCell id="3F_oWGOy9HoPIHc5fj9h-32" value="" style="endArrow=none;html=1;rounded=0;strokeColor=light-dark(#000000,#000000);entryX=0;entryY=0.5;entryDx=0;entryDy=0;" edge="1" parent="1" target="3F_oWGOy9HoPIHc5fj9h-30">
          <mxGeometry width="50" height="50" relative="1" as="geometry">
            <mxPoint x="340" y="520" as="sourcePoint" />
            <mxPoint x="550" y="690" as="targetPoint" />
          </mxGeometry>
        </mxCell>
        <mxCell id="3F_oWGOy9HoPIHc5fj9h-33" value="" style="endArrow=none;html=1;rounded=0;exitX=1;exitY=0.5;exitDx=0;exitDy=0;strokeColor=light-dark(#000000,#000000);" edge="1" parent="1" source="3F_oWGOy9HoPIHc5fj9h-30">
          <mxGeometry width="50" height="50" relative="1" as="geometry">
            <mxPoint x="510" y="530" as="sourcePoint" />
            <mxPoint x="840" y="370" as="targetPoint" />
          </mxGeometry>
        </mxCell>
        <mxCell id="3F_oWGOy9HoPIHc5fj9h-34" value="&lt;font style=&quot;color: light-dark(rgb(0, 0, 0), rgb(0, 0, 0));&quot;&gt;Sottometti&amp;nbsp;&lt;br&gt;Revisione&lt;/font&gt;" style="ellipse;whiteSpace=wrap;html=1;fillColor=light-dark(#FFFFFF,#FDF89C);strokeColor=light-dark(#000000,#000000);" vertex="1" parent="1">
          <mxGeometry x="510" y="340" width="132.5" height="40" as="geometry" />
        </mxCell>
        <mxCell id="3F_oWGOy9HoPIHc5fj9h-35" value="" style="endArrow=none;html=1;rounded=0;entryX=0.221;entryY=-0.013;entryDx=0;entryDy=0;entryPerimeter=0;strokeColor=light-dark(#000000,#000000);" edge="1" parent="1" target="3F_oWGOy9HoPIHc5fj9h-34">
          <mxGeometry width="50" height="50" relative="1" as="geometry">
            <mxPoint x="330" y="150" as="sourcePoint" />
            <mxPoint x="560" y="480" as="targetPoint" />
          </mxGeometry>
        </mxCell>
        <mxCell id="3F_oWGOy9HoPIHc5fj9h-36" value="" style="endArrow=none;html=1;rounded=0;entryX=0.226;entryY=0.046;entryDx=0;entryDy=0;entryPerimeter=0;strokeColor=light-dark(#000000,#000000);" edge="1" parent="1" target="3F_oWGOy9HoPIHc5fj9h-34">
          <mxGeometry width="50" height="50" relative="1" as="geometry">
            <mxPoint x="320" y="300" as="sourcePoint" />
            <mxPoint x="560" y="480" as="targetPoint" />
            <Array as="points" />
          </mxGeometry>
        </mxCell>
        <mxCell id="3F_oWGOy9HoPIHc5fj9h-37" value="" style="endArrow=none;html=1;rounded=0;entryX=1;entryY=0.5;entryDx=0;entryDy=0;strokeColor=light-dark(#000000,#000000);" edge="1" parent="1" target="3F_oWGOy9HoPIHc5fj9h-34">
          <mxGeometry width="50" height="50" relative="1" as="geometry">
            <mxPoint x="840" y="370" as="sourcePoint" />
            <mxPoint x="560" y="480" as="targetPoint" />
          </mxGeometry>
        </mxCell>
        <mxCell id="3F_oWGOy9HoPIHc5fj9h-38" value="&lt;font style=&quot;color: light-dark(rgb(0, 0, 0), rgb(0, 0, 0));&quot;&gt;Visualizza&lt;br&gt;Recensioni&lt;br&gt;Articolo&lt;/font&gt;" style="ellipse;whiteSpace=wrap;html=1;fillColor=light-dark(#FFFFFF,#FDF89C);strokeColor=light-dark(#000000,#000000);" vertex="1" parent="1">
          <mxGeometry x="566.57" y="780" width="141.87" height="50" as="geometry" />
        </mxCell>
        <mxCell id="3F_oWGOy9HoPIHc5fj9h-39" value="" style="endArrow=none;html=1;rounded=0;entryX=0;entryY=0.5;entryDx=0;entryDy=0;strokeColor=light-dark(#000000,#000000);" edge="1" parent="1" target="3F_oWGOy9HoPIHc5fj9h-38">
          <mxGeometry width="50" height="50" relative="1" as="geometry">
            <mxPoint x="340" y="520" as="sourcePoint" />
            <mxPoint x="560" y="480" as="targetPoint" />
          </mxGeometry>
        </mxCell>
        <mxCell id="3F_oWGOy9HoPIHc5fj9h-40" value="" style="endArrow=none;html=1;rounded=0;exitX=1;exitY=0.5;exitDx=0;exitDy=0;strokeColor=light-dark(#000000,#000000);" edge="1" parent="1" source="3F_oWGOy9HoPIHc5fj9h-38">
          <mxGeometry width="50" height="50" relative="1" as="geometry">
            <mxPoint x="510" y="530" as="sourcePoint" />
            <mxPoint x="840" y="370" as="targetPoint" />
          </mxGeometry>
        </mxCell>
        <mxCell id="3F_oWGOy9HoPIHc5fj9h-45" style="edgeStyle=orthogonalEdgeStyle;rounded=0;orthogonalLoop=1;jettySize=auto;html=1;exitX=0.25;exitY=0.1;exitDx=0;exitDy=0;exitPerimeter=0;" edge="1" parent="1" source="3F_oWGOy9HoPIHc5fj9h-41" target="OoIWjtk9Z4yZWAxyzODX-18">
          <mxGeometry relative="1" as="geometry" />
        </mxCell>
        <mxCell id="3F_oWGOy9HoPIHc5fj9h-41" value="&lt;font style=&quot;color: light-dark(rgb(0, 0, 0), rgb(0, 0, 0));&quot;&gt;&lt;span style=&quot;font-size: 14px;&quot;&gt;Tempo&lt;/span&gt;&lt;/font&gt;&lt;div&gt;&lt;font color=&quot;#000000&quot;&gt;&lt;span style=&quot;font-size: 14px;&quot;&gt;&lt;br&gt;&lt;/span&gt;&lt;/font&gt;&lt;/div&gt;" style="shape=umlActor;verticalLabelPosition=bottom;verticalAlign=top;html=1;outlineConnect=0;strokeColor=light-dark(#000000,#000000);fillColor=light-dark(#FFFFC6,#FDF89C);" vertex="1" parent="1">
          <mxGeometry x="300" y="830" width="30" height="60" as="geometry" />
        </mxCell>
        <mxCell id="3F_oWGOy9HoPIHc5fj9h-44" style="edgeStyle=orthogonalEdgeStyle;rounded=0;orthogonalLoop=1;jettySize=auto;html=1;exitX=0.25;exitY=0.1;exitDx=0;exitDy=0;exitPerimeter=0;" edge="1" parent="1" source="3F_oWGOy9HoPIHc5fj9h-41" target="3F_oWGOy9HoPIHc5fj9h-41">
          <mxGeometry relative="1" as="geometry" />
        </mxCell>
        <mxCell id="3F_oWGOy9HoPIHc5fj9h-46" value="&lt;font style=&quot;color: light-dark(rgb(0, 0, 0), rgb(0, 0, 0));&quot;&gt;Notifica&lt;br&gt;Esito&lt;br&gt;Revisione&lt;/font&gt;" style="ellipse;whiteSpace=wrap;html=1;fillColor=light-dark(#FFFFFF,#FDF89C);strokeColor=light-dark(#000000,#000000);" vertex="1" parent="1">
          <mxGeometry x="566.57" y="850" width="160" height="50" as="geometry" />
        </mxCell>
        <mxCell id="3F_oWGOy9HoPIHc5fj9h-47" value="" style="endArrow=none;html=1;rounded=0;entryX=0;entryY=0.5;entryDx=0;entryDy=0;strokeColor=light-dark(#000000,#000000);" edge="1" parent="1" source="3F_oWGOy9HoPIHc5fj9h-41" target="3F_oWGOy9HoPIHc5fj9h-46">
          <mxGeometry width="50" height="50" relative="1" as="geometry">
            <mxPoint x="510" y="530" as="sourcePoint" />
            <mxPoint x="560" y="480" as="targetPoint" />
          </mxGeometry>
        </mxCell>
        <mxCell id="3F_oWGOy9HoPIHc5fj9h-48" value="" style="endArrow=none;html=1;rounded=0;exitX=1;exitY=0.5;exitDx=0;exitDy=0;strokeColor=light-dark(#000000,#000000);" edge="1" parent="1" source="3F_oWGOy9HoPIHc5fj9h-46">
          <mxGeometry width="50" height="50" relative="1" as="geometry">
            <mxPoint x="510" y="530" as="sourcePoint" />
            <mxPoint x="840" y="370" as="targetPoint" />
          </mxGeometry>
        </mxCell>
        <mxCell id="3F_oWGOy9HoPIHc5fj9h-49" value="&lt;font style=&quot;color: light-dark(rgb(0, 0, 0), rgb(0, 0, 0));&quot;&gt;Gestisci&lt;br&gt;Conflitto&lt;br&gt;Interessi&lt;/font&gt;" style="ellipse;whiteSpace=wrap;html=1;fillColor=light-dark(#FFFFFF,#FDF89C);strokeColor=light-dark(#000000,#000000);" vertex="1" parent="1">
          <mxGeometry x="582.51" y="560" width="110" height="60" as="geometry" />
        </mxCell>
        <mxCell id="3F_oWGOy9HoPIHc5fj9h-50" value="" style="endArrow=none;dashed=1;html=1;rounded=0;entryX=0;entryY=0.5;entryDx=0;entryDy=0;strokeColor=light-dark(#000000,#000000);" edge="1" parent="1" target="3F_oWGOy9HoPIHc5fj9h-49">
          <mxGeometry width="50" height="50" relative="1" as="geometry">
            <mxPoint x="340" y="520" as="sourcePoint" />
            <mxPoint x="560" y="480" as="targetPoint" />
          </mxGeometry>
        </mxCell>
        <mxCell id="3F_oWGOy9HoPIHc5fj9h-52" value="" style="endArrow=none;dashed=1;html=1;rounded=0;exitX=1;exitY=0.5;exitDx=0;exitDy=0;strokeColor=light-dark(#000000,#000000);" edge="1" parent="1" source="3F_oWGOy9HoPIHc5fj9h-49">
          <mxGeometry width="50" height="50" relative="1" as="geometry">
            <mxPoint x="510" y="530" as="sourcePoint" />
            <mxPoint x="840" y="370" as="targetPoint" />
          </mxGeometry>
        </mxCell>
        <mxCell id="3F_oWGOy9HoPIHc5fj9h-54" value="" style="endArrow=none;dashed=1;html=1;rounded=0;" edge="1" parent="1">
          <mxGeometry width="50" height="50" relative="1" as="geometry">
            <mxPoint x="510" y="530" as="sourcePoint" />
            <mxPoint x="560" y="480" as="targetPoint" />
          </mxGeometry>
        </mxCell>
        <mxCell id="3F_oWGOy9HoPIHc5fj9h-55" value="" style="endArrow=none;html=1;rounded=0;strokeColor=light-dark(#000000,#000000);endFill=0;strokeWidth=1;startSize=6;jumpSize=6;targetPerimeterSpacing=0;endSize=6;startFill=0;entryX=0;entryY=0.5;entryDx=0;entryDy=0;" edge="1" parent="1" target="OoIWjtk9Z4yZWAxyzODX-3">
          <mxGeometry width="50" height="50" relative="1" as="geometry">
            <mxPoint x="332" y="150" as="sourcePoint" />
            <mxPoint x="494.5" y="170" as="targetPoint" />
            <Array as="points" />
          </mxGeometry>
        </mxCell>
        <mxCell id="OoIWjtk9Z4yZWAxyzODX-3" value="&lt;font style=&quot;color: light-dark(rgb(9, 9, 9), rgb(0, 0, 0));&quot;&gt;&lt;span style=&quot;font-size: 14px;&quot;&gt;&lt;b style=&quot;&quot;&gt;&lt;font face=&quot;Courier New&quot;&gt;Delega&lt;/font&gt;&lt;br&gt;&lt;font face=&quot;Times New Roman&quot;&gt;Revisione&lt;/font&gt;&lt;/b&gt;&lt;/span&gt;&lt;/font&gt;" style="ellipse;whiteSpace=wrap;html=1;fillColor=light-dark(#FFFFC6, #fdf89c);strokeColor=light-dark(#000000,#000000);gradientColor=none;" parent="1" vertex="1">
          <mxGeometry x="415" y="130" width="165" height="60" as="geometry" />
        </mxCell>
        <mxCell id="3F_oWGOy9HoPIHc5fj9h-56" value="&lt;font style=&quot;color: light-dark(rgb(0, 0, 0), rgb(0, 0, 0));&quot;&gt;Inserisci&lt;br&gt;Dati&amp;nbsp;&lt;br&gt;Revisione&lt;/font&gt;" style="ellipse;whiteSpace=wrap;html=1;fillColor=light-dark(#FFFFFF,#FDF89C);strokeColor=light-dark(#000000,#000000);" vertex="1" parent="1">
          <mxGeometry x="581.88" y="275" width="120" height="50" as="geometry" />
        </mxCell>
        <mxCell id="3F_oWGOy9HoPIHc5fj9h-57" value="" style="endArrow=none;html=1;rounded=0;entryX=1;entryY=0.5;entryDx=0;entryDy=0;strokeColor=light-dark(#000000,#000000);" edge="1" parent="1" target="3F_oWGOy9HoPIHc5fj9h-56">
          <mxGeometry width="50" height="50" relative="1" as="geometry">
            <mxPoint x="840" y="370" as="sourcePoint" />
            <mxPoint x="560" y="480" as="targetPoint" />
          </mxGeometry>
        </mxCell>
        <mxCell id="3F_oWGOy9HoPIHc5fj9h-58" value="" style="endArrow=none;dashed=1;html=1;rounded=0;entryX=0.122;entryY=0.833;entryDx=0;entryDy=0;entryPerimeter=0;strokeColor=light-dark(#000000,#000000);" edge="1" parent="1" source="3F_oWGOy9HoPIHc5fj9h-59" target="3F_oWGOy9HoPIHc5fj9h-56">
          <mxGeometry width="50" height="50" relative="1" as="geometry">
            <mxPoint x="570" y="340" as="sourcePoint" />
            <mxPoint x="610" y="300" as="targetPoint" />
          </mxGeometry>
        </mxCell>
        <mxCell id="3F_oWGOy9HoPIHc5fj9h-60" value="" style="endArrow=none;dashed=1;html=1;rounded=0;entryX=0;entryY=0.5;entryDx=0;entryDy=0;entryPerimeter=0;strokeColor=light-dark(#000000,#000000);" edge="1" parent="1" target="3F_oWGOy9HoPIHc5fj9h-59">
          <mxGeometry width="50" height="50" relative="1" as="geometry">
            <mxPoint x="570" y="340" as="sourcePoint" />
            <mxPoint x="597" y="317" as="targetPoint" />
          </mxGeometry>
        </mxCell>
        <mxCell id="3F_oWGOy9HoPIHc5fj9h-59" value="" style="verticalLabelPosition=bottom;verticalAlign=top;html=1;strokeWidth=2;shape=mxgraph.arrows2.arrow;dy=0.6;dx=40;notch=0;rotation=-45;" vertex="1" parent="1">
          <mxGeometry x="590" y="315" width="8.12" height="10" as="geometry" />
        </mxCell>
        <mxCell id="3F_oWGOy9HoPIHc5fj9h-61" value="&lt;font style=&quot;color: light-dark(rgb(0, 0, 0), rgb(0, 0, 0)); font-size: 5px;&quot;&gt;&amp;lt;&amp;lt;Include&amp;gt;&amp;gt;&lt;/font&gt;" style="text;html=1;align=center;verticalAlign=middle;resizable=0;points=[];autosize=1;strokeColor=none;fillColor=none;rotation=-45;" vertex="1" parent="1">
          <mxGeometry x="548.12" y="310" width="50" height="30" as="geometry" />
        </mxCell>
      </root>
    </mxGraphModel>
  </diagram>
</mxfile>
